<svg width="1517" height="1575" viewBox="0 0 1517 1575" fill="none" xmlns="http://www.w3.org/2000/svg">
<path d="M416.028 779.304C600.262 956.364 871.335 1018.37 940.749 1029.52C893.166 700.819 576.56 469.386 239.763 538.339C194.511 929.946 585.195 1222.57 945.695 1076.69C945.695 1076.41 945.644 1076.13 945.644 1075.87C563.159 1029.21 416.028 779.304 416.028 779.304Z" fill="#1B763B"/>
<path d="M1264.8 538.331C1226.46 530.49 1186.8 526.364 1146.13 526.364C1009.38 526.364 883.618 573.127 783.711 651.382C834.266 697.838 877.16 752.519 910.42 813.298C989.059 768.713 1110.98 693.507 1153.92 632.139C1100.16 730.047 1036.44 774.888 928.638 849.325C958.746 913.871 978.374 984.336 984.985 1058.72C1153.05 973.651 1268.38 799.436 1268.38 598.162C1268.36 577.945 1267.08 557.984 1264.8 538.331Z" fill="#8BC53F"/>
<path d="M611.961 333.118L649.346 551.996C676.507 564.116 702.592 578.388 727.344 594.557L658.16 323.279C710.253 299.167 742.129 221.476 724.73 139.66C705.461 48.9519 632.946 -12.468 562.738 2.44496C492.554 17.3579 451.3 102.992 470.569 193.674C487.968 275.516 548.696 333.503 611.961 333.118Z" fill="#F6921E"/>
<path d="M854.59 337.606L790.172 590.179C814.617 574.676 840.01 561.147 866.223 549.744L900.764 347.42C958.161 346.549 1001.29 284.847 1018.68 203.005C1024.37 176.228 1037.54 103.841 1028.06 58.4618C1027.32 54.8489 1024.14 52.2609 1020.45 52.2609C1016.76 52.2609 1013.61 54.8233 1012.82 58.4362L977.276 225.682C976.507 229.32 974.304 232.498 971.203 234.522C968.103 236.546 964.285 237.264 960.646 236.495L959.852 236.316C952.267 234.701 947.45 227.271 949.039 219.686L984.425 53.2602C986.167 45.035 980.94 36.938 972.689 35.1955L972.407 35.1443C968.461 34.2987 964.336 35.0674 960.954 37.2711C957.571 39.4747 955.188 42.9339 954.343 46.8799L918.956 213.306C918.188 216.944 916.01 220.122 912.884 222.146C909.783 224.17 905.965 224.888 902.327 224.093L901.532 223.914C893.973 222.3 889.105 214.869 890.745 207.284L926.105 40.8584C926.951 36.9123 926.182 32.7869 923.979 29.4046C921.775 26.0223 918.316 23.6393 914.37 22.7937C905.991 21.0257 897.74 26.3554 895.972 34.7343L860.663 200.878C859.894 204.517 857.69 207.694 854.59 209.718C851.464 211.743 847.671 212.434 844.033 211.666L843.238 211.486C835.654 209.872 830.837 202.441 832.451 194.857L868.145 26.9191C868.888 23.4343 867.171 19.8982 863.968 18.3095C860.765 16.7465 856.896 17.5408 854.59 20.2569C824.841 55.387 806.135 126.313 799.729 156.447C782.331 238.314 796.629 312.239 854.59 337.606Z" fill="#F6921E"/>
<path d="M189.41 1478.06H71.8744C72.4637 1491.49 75.9229 1501.92 82.2264 1509.38C88.5298 1516.83 98.8817 1520.55 113.308 1520.55C120.508 1520.55 128.836 1519.52 138.291 1517.5C147.746 1515.47 158.636 1512.12 170.935 1507.45C180.826 1517.7 187.002 1531.57 189.41 1549.04C165.298 1566.21 135.78 1574.79 100.804 1574.79C81.8164 1574.79 65.9297 1571.77 53.1179 1565.75C40.306 1559.73 29.9028 1551.27 21.9339 1540.43C13.9393 1529.59 8.30207 1516.78 4.97099 1502.02C1.66554 1487.26 0 1471.15 0 1453.64C0 1436.76 2.02427 1421.18 6.09843 1406.86C10.1726 1392.56 16.3479 1380.1 24.6243 1369.57C32.9008 1359.02 43.4577 1350.74 56.2696 1344.72C69.0814 1338.7 84.0713 1335.67 101.239 1335.67C115.716 1335.67 128.733 1338.08 140.341 1342.9C151.948 1347.72 161.813 1354.35 169.936 1362.78C178.085 1371.21 184.311 1381.31 188.693 1393.07C193.049 1404.83 195.252 1417.64 195.252 1431.48C195.278 1449.88 193.331 1465.41 189.41 1478.06ZM71.4132 1429.25H130.629V1424.28C130.629 1413.13 128.144 1403.93 123.224 1396.71C118.279 1389.48 110.874 1385.87 101.009 1385.87C91.4509 1385.87 84.3275 1389.25 79.6896 1396.04C75.0774 1402.81 72.31 1413.88 71.4132 1429.25Z" fill="#52443B"/>
<path d="M350.891 1442.36V1436.49C350.891 1419.6 349.072 1407.33 345.459 1399.64C341.846 1391.95 335.055 1388.11 325.114 1388.11C314.557 1388.11 307.177 1393.31 302.975 1403.71C298.747 1414.12 296.646 1431.36 296.646 1455.47C296.646 1467.54 297.466 1477.61 299.131 1485.76C300.797 1493.88 303.205 1500.44 306.357 1505.42C309.509 1510.39 313.506 1514 318.349 1516.25C323.166 1518.51 328.88 1519.64 335.517 1519.64C342.435 1519.64 350.122 1518.12 358.578 1515.13C367.008 1512.13 376.053 1507.29 385.688 1500.67C388.404 1502.19 391.171 1504.36 394.041 1507.23C396.911 1510.1 399.55 1513.33 401.959 1516.95C404.368 1520.56 406.469 1524.4 408.288 1528.48C410.107 1532.55 411.44 1536.39 412.362 1540.01C402.42 1550.56 389.455 1558.99 373.491 1565.32C357.527 1571.65 341.231 1574.8 324.678 1574.8C292.418 1574.8 267.717 1564.27 250.549 1543.16C233.381 1522.07 224.797 1492.09 224.797 1453.19C224.797 1433.31 227.564 1415.99 233.15 1401.2C238.736 1386.44 246.116 1374.25 255.289 1364.59C264.488 1354.95 275.019 1347.73 286.934 1342.88C298.824 1338.07 311.277 1335.66 324.217 1335.66C337.464 1335.66 349.61 1337.48 360.602 1341.09C371.595 1344.7 381.101 1349.83 389.07 1356.46C397.039 1363.1 403.24 1371.02 407.596 1380.19C411.952 1389.39 414.156 1399.56 414.156 1410.71C414.156 1423.37 410.466 1432.26 403.086 1437.38C395.707 1442.51 386.585 1445.07 375.746 1445.07C366.701 1445.07 358.399 1444.17 350.891 1442.36Z" fill="#52443B"/>
<path d="M612.014 1362.35C633.717 1384.05 644.556 1415.08 644.556 1455.46C644.556 1473.55 642.224 1489.98 637.535 1504.74C632.872 1519.5 626.081 1532.08 617.19 1542.48C608.299 1552.88 597.383 1560.88 584.417 1566.44C571.452 1572 556.539 1574.79 539.653 1574.79C522.767 1574.79 507.931 1571.92 495.119 1566.21C482.307 1560.49 471.443 1552.42 462.577 1542.02C453.685 1531.62 446.972 1519.04 442.462 1504.28C437.952 1489.52 435.672 1473.25 435.672 1455.46C435.672 1437.37 437.927 1421.05 442.462 1406.42C446.972 1391.81 453.608 1379.23 462.346 1368.68C471.084 1358.12 481.923 1350 494.888 1344.26C507.854 1338.54 522.767 1335.67 539.627 1335.67C569.53 1335.67 593.616 1344.56 612.014 1362.35ZM539.909 1388.56C533.221 1388.56 527.84 1390.15 523.74 1393.3C519.641 1396.45 516.386 1400.76 513.952 1406.19C511.518 1411.62 509.852 1417.87 508.956 1424.95C508.033 1432.04 507.598 1439.63 507.598 1447.78C507.598 1460.43 507.982 1471.35 508.725 1480.55C509.494 1489.75 511.005 1497.44 513.26 1503.61C515.541 1509.79 518.718 1514.4 522.818 1517.4C526.918 1520.42 532.299 1521.91 538.987 1521.91C552.336 1521.91 561.125 1516.11 565.379 1504.51C569.632 1492.9 571.759 1476.4 571.759 1455C571.759 1433.3 569.632 1416.8 565.379 1405.5C561.151 1394.22 552.644 1388.56 539.909 1388.56Z" fill="#52443B"/>
<path d="M697.556 1568.05V1391.29L658.685 1391.75C656.866 1384.3 655.969 1376.07 655.969 1367.1C655.969 1358.16 656.866 1349.78 658.685 1342.02L693.943 1342.48C692.431 1331.33 691.688 1321.24 691.688 1312.19C691.688 1289.59 698.991 1270.84 713.622 1255.92C728.227 1241.01 747.292 1233.55 770.814 1233.55C794.311 1233.55 817.372 1237.78 839.972 1246.21C840.28 1254.05 838.922 1262.56 835.898 1271.76C832.875 1280.96 829.108 1287.95 824.598 1292.77C810.428 1288.57 798.846 1286.44 789.801 1286.44C769.61 1286.44 759.514 1296.84 759.514 1317.63C759.514 1326.36 760.129 1334.79 761.333 1342.94L820.55 1342.04C822.369 1349.81 823.266 1358.19 823.266 1367.13C823.266 1376.07 822.369 1384.3 820.55 1391.78L766.304 1390.88V1568.07C756.055 1569.89 744.755 1570.79 732.404 1570.79C720.002 1570.76 708.42 1569.84 697.556 1568.05Z" fill="#81BA41"/>
<path d="M1006.66 1362.35C1028.36 1384.05 1039.2 1415.08 1039.2 1455.46C1039.2 1473.55 1036.84 1489.98 1032.18 1504.74C1027.52 1519.5 1020.73 1532.08 1011.84 1542.48C1002.94 1552.88 992.004 1560.88 979.064 1566.44C966.098 1572 951.185 1574.79 934.325 1574.79C917.439 1574.79 902.603 1571.92 889.791 1566.21C876.979 1560.49 866.114 1552.42 857.249 1542.02C848.357 1531.62 841.644 1519.04 837.134 1504.28C832.599 1489.52 830.344 1473.25 830.344 1455.46C830.344 1437.37 832.599 1421.05 837.134 1406.42C841.644 1391.81 848.28 1379.23 857.018 1368.68C865.756 1358.12 876.595 1350 889.56 1344.26C902.526 1338.54 917.413 1335.67 934.299 1335.67C964.176 1335.67 988.288 1344.56 1006.66 1362.35ZM934.581 1388.56C927.893 1388.56 922.512 1390.15 918.412 1393.3C914.313 1396.45 911.058 1400.76 908.624 1406.19C906.19 1411.62 904.524 1417.87 903.627 1424.95C902.705 1432.04 902.269 1439.63 902.269 1447.78C902.269 1460.43 902.628 1471.35 903.397 1480.55C904.166 1489.75 905.677 1497.44 907.932 1503.61C910.213 1509.79 913.39 1514.4 917.49 1517.4C921.59 1520.42 926.971 1521.91 933.658 1521.91C947.008 1521.91 955.797 1516.11 960.051 1504.51C964.304 1492.9 966.431 1476.4 966.431 1455C966.431 1433.3 964.304 1416.8 960.051 1405.5C955.797 1394.22 947.316 1388.56 934.581 1388.56Z" fill="#81BA41"/>
<path d="M1242.54 1362.35C1264.24 1384.05 1275.08 1415.08 1275.08 1455.46C1275.08 1473.55 1272.72 1489.98 1268.06 1504.74C1263.4 1519.5 1256.61 1532.08 1247.72 1542.48C1238.82 1552.88 1227.88 1560.88 1214.94 1566.44C1201.98 1572 1187.06 1574.79 1170.2 1574.79C1153.32 1574.79 1138.48 1571.92 1125.67 1566.21C1112.86 1560.49 1101.99 1552.42 1093.13 1542.02C1084.24 1531.62 1077.52 1519.04 1073.01 1504.28C1068.48 1489.52 1066.22 1473.25 1066.22 1455.46C1066.22 1437.37 1068.48 1421.05 1073.01 1406.42C1077.52 1391.81 1084.16 1379.23 1092.9 1368.68C1101.63 1358.12 1112.47 1350 1125.44 1344.26C1138.4 1338.54 1153.29 1335.67 1170.18 1335.67C1200.06 1335.67 1224.14 1344.56 1242.54 1362.35ZM1170.43 1388.56C1163.75 1388.56 1158.37 1390.15 1154.27 1393.3C1150.17 1396.45 1146.91 1400.76 1144.48 1406.19C1142.04 1411.62 1140.38 1417.87 1139.48 1424.95C1138.56 1432.04 1138.12 1439.63 1138.12 1447.78C1138.12 1460.43 1138.48 1471.35 1139.25 1480.55C1140.02 1489.75 1141.53 1497.44 1143.79 1503.61C1146.07 1509.79 1149.24 1514.4 1153.34 1517.4C1157.44 1520.42 1162.82 1521.91 1169.51 1521.91C1182.86 1521.91 1191.65 1516.11 1195.9 1504.51C1200.16 1492.9 1202.28 1476.4 1202.28 1455C1202.28 1433.3 1200.16 1416.8 1195.9 1405.5C1191.68 1394.22 1183.17 1388.56 1170.43 1388.56Z" fill="#81BA41"/>
<path d="M1393.57 1337.94C1408.05 1337.94 1422.06 1341.27 1435.62 1347.88V1238.5L1438.33 1235.35H1465.9C1480.36 1235.35 1490.37 1238.5 1495.96 1244.83C1501.55 1251.16 1504.31 1262.17 1504.31 1277.83V1502.93C1504.31 1518.92 1508.54 1529.76 1516.97 1535.48C1515.46 1541.8 1512.59 1548.59 1508.39 1555.82C1504.16 1563.05 1499.8 1568.33 1495.27 1571.63C1473.26 1571.02 1457.14 1562.59 1446.92 1546.31C1428.83 1565.3 1407.12 1574.78 1381.83 1574.78C1356.52 1574.78 1337.07 1564.25 1323.51 1543.14C1309.96 1522.05 1303.17 1493.12 1303.17 1456.35C1303.17 1438.26 1305.5 1421.94 1310.19 1407.31C1314.85 1392.7 1321.26 1380.27 1329.41 1370.02C1337.53 1359.77 1347.11 1351.86 1358.11 1346.3C1369.07 1340.74 1380.91 1337.94 1393.57 1337.94ZM1402.36 1517.85C1414.81 1517.85 1425.88 1511.98 1435.62 1500.22V1401.23C1423.16 1394.01 1413.3 1390.39 1406.02 1390.39C1385.37 1390.39 1375.04 1412.99 1375.04 1458.19C1375.02 1497.96 1384.14 1517.85 1402.36 1517.85Z" fill="#81BA41"/>
</svg>
