<svg width="244" height="393" viewBox="0 0 244 393" fill="none" xmlns="http://www.w3.org/2000/svg">
<g filter="url(#filter0_d_1188_31)">
<rect x="45" y="348" width="303" height="154" rx="18" transform="rotate(-90 45 348)" fill="white"/>
<rect x="46" y="347" width="301" height="152" rx="17" transform="rotate(-90 46 347)" stroke="#BBBBBB" stroke-width="2"/>
</g>
<path d="M87.0631 183.653L87.1869 177.158L83.8536 182.464L83.0418 182.447L79.9348 177.088L79.7987 183.499L78.0631 183.462L78.271 173.664L79.7687 173.696L83.522 180.273L87.4809 173.859L88.9786 173.891L88.7847 183.689L87.0631 183.653ZM94.6204 183.911C93.8646 183.895 93.1869 183.717 92.5873 183.378C91.9877 183.038 91.5214 182.576 91.1884 181.99C90.865 181.395 90.711 180.729 90.7267 179.992C90.7423 179.254 90.9242 178.6 91.2724 178.029C91.63 177.458 92.1155 177.015 92.7289 176.701C93.3424 176.388 94.027 176.239 94.7829 176.255C95.548 176.271 96.2304 176.449 96.83 176.788C97.4296 177.128 97.8912 177.59 98.2149 178.176C98.5479 178.762 98.7065 179.423 98.6909 180.161C98.6753 180.898 98.4886 181.557 98.1308 182.137C97.7826 182.709 97.3018 183.151 96.6884 183.465C96.0749 183.779 95.3856 183.927 94.6204 183.911ZM94.6522 182.413C95.2961 182.427 95.8325 182.224 96.2615 181.803C96.6905 181.383 96.9124 180.823 96.9273 180.123C96.9421 179.423 96.7442 178.854 96.3334 178.416C95.9226 177.978 95.3952 177.752 94.7514 177.739C94.1075 177.725 93.5711 177.928 93.1421 178.349C92.7224 178.769 92.5051 179.329 92.4903 180.029C92.4754 180.729 92.6688 181.298 93.0702 181.736C93.481 182.174 94.0083 182.4 94.6522 182.413ZM104.588 176.463C105.316 176.478 105.961 176.651 106.524 176.98C107.095 177.31 107.538 177.767 107.853 178.353C108.167 178.938 108.316 179.609 108.3 180.365C108.284 181.12 108.107 181.789 107.768 182.37C107.429 182.941 106.967 183.38 106.381 183.685C105.805 183.99 105.153 184.135 104.426 184.119C103.912 184.108 103.443 184.01 103.018 183.823C102.601 183.637 102.253 183.364 101.971 183.003L101.95 183.969L100.285 183.933L100.505 173.548L102.255 173.585L102.174 177.406C102.479 177.086 102.834 176.846 103.239 176.686C103.653 176.527 104.103 176.453 104.588 176.463ZM104.261 182.617C104.905 182.631 105.437 182.428 105.857 182.007C106.286 181.587 106.508 181.027 106.523 180.327C106.537 179.627 106.339 179.058 105.929 178.62C105.527 178.182 105.005 177.956 104.361 177.942C103.941 177.933 103.561 178.023 103.221 178.212C102.881 178.392 102.609 178.657 102.406 179.007C102.202 179.358 102.095 179.766 102.086 180.233C102.076 180.699 102.165 181.112 102.353 181.471C102.542 181.829 102.802 182.11 103.134 182.313C103.466 182.507 103.842 182.608 104.261 182.617ZM110.039 176.663L111.788 176.7L111.63 184.174L109.88 184.137L110.039 176.663ZM110.947 175.45C110.629 175.443 110.366 175.339 110.155 175.139C109.945 174.929 109.843 174.675 109.849 174.376C109.856 174.077 109.968 173.832 110.187 173.641C110.406 173.44 110.674 173.343 110.991 173.35C111.308 173.357 111.572 173.46 111.783 173.661C111.993 173.852 112.096 174.092 112.09 174.382C112.083 174.689 111.97 174.948 111.751 175.159C111.541 175.359 111.273 175.456 110.947 175.45ZM114.146 173.837L115.896 173.874L115.676 184.26L113.926 184.223L114.146 173.837ZM125.077 180.762C125.074 180.884 125.061 181.056 125.038 181.28L119.173 181.155C119.264 181.708 119.521 182.152 119.943 182.488C120.375 182.815 120.913 182.985 121.557 182.998C122.378 183.016 123.06 182.759 123.603 182.23L124.518 183.327C124.174 183.721 123.743 184.016 123.225 184.21C122.708 184.404 122.127 184.495 121.483 184.481C120.662 184.464 119.942 184.285 119.324 183.945C118.706 183.605 118.23 183.142 117.897 182.557C117.574 181.962 117.42 181.295 117.436 180.558C117.451 179.83 117.628 179.181 117.967 178.609C118.315 178.028 118.787 177.581 119.382 177.267C119.977 176.953 120.643 176.804 121.38 176.819C122.108 176.835 122.753 177.012 123.315 177.35C123.887 177.68 124.325 178.142 124.63 178.737C124.944 179.322 125.093 179.997 125.077 180.762ZM121.35 178.219C120.79 178.207 120.311 178.365 119.912 178.692C119.522 179.011 119.28 179.445 119.184 179.993L123.425 180.083C123.362 179.54 123.142 179.097 122.767 178.753C122.392 178.409 121.919 178.231 121.35 178.219ZM133.563 177.078C134.664 177.101 135.498 177.385 136.066 177.929C136.642 178.464 136.919 179.263 136.897 180.327L136.804 184.708L135.152 184.673L135.172 183.763C134.95 184.085 134.637 184.331 134.232 184.499C133.836 184.659 133.359 184.733 132.799 184.721C132.239 184.709 131.751 184.606 131.335 184.41C130.919 184.205 130.598 183.932 130.372 183.591C130.156 183.241 130.052 182.852 130.061 182.423C130.075 181.751 130.334 181.219 130.837 180.829C131.35 180.429 132.142 180.24 133.215 180.263L135.147 180.304L135.149 180.192C135.16 179.669 135.01 179.265 134.699 178.978C134.397 178.692 133.938 178.542 133.322 178.529C132.902 178.52 132.486 178.576 132.072 178.698C131.668 178.82 131.324 178.995 131.039 179.223L130.38 177.934C130.778 177.644 131.255 177.425 131.808 177.278C132.362 177.132 132.947 177.065 133.563 177.078ZM133.19 183.455C133.628 183.464 134.018 183.375 134.358 183.186C134.707 182.988 134.956 182.704 135.104 182.333L135.122 181.466L133.317 181.427C132.309 181.406 131.798 181.727 131.784 182.389C131.777 182.706 131.898 182.961 132.146 183.153C132.394 183.345 132.742 183.446 133.19 183.455ZM143.353 177.285C144.081 177.301 144.726 177.473 145.288 177.802C145.86 178.132 146.303 178.59 146.617 179.175C146.932 179.76 147.081 180.431 147.065 181.187C147.049 181.943 146.871 182.611 146.532 183.192C146.193 183.764 145.731 184.202 145.146 184.507C144.57 184.812 143.918 184.957 143.19 184.942C142.183 184.92 141.392 184.567 140.818 183.883L140.741 187.508L138.992 187.471L139.208 177.281L140.874 177.317L140.853 178.297C141.15 177.948 141.51 177.69 141.933 177.521C142.366 177.353 142.84 177.274 143.353 177.285ZM143.026 183.44C143.67 183.453 144.202 183.25 144.621 182.829C145.051 182.409 145.272 181.849 145.287 181.149C145.302 180.449 145.104 179.88 144.693 179.442C144.292 179.004 143.769 178.778 143.125 178.765C142.705 178.756 142.325 178.846 141.985 179.035C141.646 179.214 141.374 179.479 141.17 179.83C140.967 180.18 140.86 180.589 140.85 181.055C140.84 181.522 140.93 181.934 141.118 182.293C141.307 182.652 141.567 182.933 141.898 183.136C142.23 183.33 142.606 183.431 143.026 183.44ZM152.948 177.489C153.676 177.504 154.321 177.677 154.884 178.006C155.456 178.336 155.899 178.793 156.213 179.379C156.527 179.964 156.676 180.635 156.66 181.391C156.644 182.146 156.467 182.815 156.128 183.396C155.789 183.967 155.327 184.406 154.742 184.711C154.166 185.016 153.514 185.161 152.786 185.145C151.778 185.124 150.987 184.771 150.414 184.087L150.337 187.712L148.587 187.675L148.803 177.485L150.469 177.52L150.448 178.5C150.745 178.152 151.105 177.893 151.529 177.725C151.962 177.557 152.435 177.478 152.948 177.489ZM152.622 183.643C153.266 183.657 153.797 183.454 154.217 183.033C154.646 182.613 154.868 182.053 154.883 181.353C154.898 180.653 154.7 180.084 154.289 179.646C153.887 179.208 153.365 178.982 152.721 178.968C152.301 178.96 151.921 179.049 151.581 179.238C151.241 179.418 150.969 179.683 150.766 180.033C150.562 180.384 150.456 180.792 150.446 181.259C150.436 181.725 150.525 182.138 150.714 182.497C150.902 182.855 151.162 183.136 151.494 183.339C151.826 183.533 152.202 183.634 152.622 183.643Z" fill="black"/>
<defs>
<filter id="filter0_d_1188_31" x="0" y="0" width="244" height="393" filterUnits="userSpaceOnUse" color-interpolation-filters="sRGB">
<feFlood flood-opacity="0" result="BackgroundImageFix"/>
<feColorMatrix in="SourceAlpha" type="matrix" values="0 0 0 0 0 0 0 0 0 0 0 0 0 0 0 0 0 0 127 0" result="hardAlpha"/>
<feOffset/>
<feGaussianBlur stdDeviation="22.5"/>
<feComposite in2="hardAlpha" operator="out"/>
<feColorMatrix type="matrix" values="0 0 0 0 0 0 0 0 0 0 0 0 0 0 0 0 0 0 0.25 0"/>
<feBlend mode="normal" in2="BackgroundImageFix" result="effect1_dropShadow_1188_31"/>
<feBlend mode="normal" in="SourceGraphic" in2="effect1_dropShadow_1188_31" result="shape"/>
</filter>
</defs>
</svg>
